<svg xmlns="http://www.w3.org/2000/svg" width="1200" height="630" viewBox="0 0 1200 630">
  <rect width="1200" height="630" fill="#0f0f0f"/>
  <!-- Nav bar -->
  <rect width="1200" height="60" fill="#1a1a1a"/>
  <rect x="24" y="16" width="28" height="28" rx="6" fill="#3b82f6"/>
  <path d="M38 22 L24 30 L24 40 L38 48 L52 40 L52 30 Z" stroke="white" stroke-width="2" fill="none"/>
  <rect x="68" y="22" width="120" height="16" rx="4" fill="#3b3b3b"/>
  <rect x="1060" y="20" width="80" height="20" rx="4" fill="#2a2a2a"/>
  <!-- Hero heading -->
  <rect x="300" y="90" width="600" height="48" rx="6" fill="#1e1e1e"/>
  <rect x="330" y="102" width="280" height="24" rx="4" fill="#3b3b3b"/>
  <rect x="620" y="102" width="120" height="24" rx="4" fill="#1e3a6e"/>
  <!-- Subheading -->
  <rect x="250" y="155" width="700" height="16" rx="4" fill="#2a2a2a"/>
  <!-- Input box -->
  <rect x="150" y="190" width="900" height="110" rx="10" fill="#1a1a1a" stroke="#2e2e2e" stroke-width="1"/>
  <!-- URL input -->
  <rect x="175" y="210" width="640" height="48" rx="6" fill="#242424" stroke="#2e2e2e" stroke-width="1"/>
  <rect x="195" y="228" width="200" height="12" rx="3" fill="#3a3a3a"/>
  <!-- Rip button -->
  <rect x="830" y="210" width="100" height="48" rx="6" fill="#3b82f6"/>
  <rect x="860" y="230" width="40" height="8" rx="3" fill="white" opacity="0.9"/>
  <!-- Quota hint -->
  <rect x="175" y="270" width="180" height="10" rx="3" fill="#2a2a2a"/>
  <!-- Feature grid -->
  <rect x="100" y="330" width="200" height="90" rx="6" fill="#1a1a1a" stroke="#2e2e2e" stroke-width="1"/>
  <rect x="115" y="345" width="80" height="10" rx="3" fill="#3b3b3b"/>
  <rect x="115" y="365" width="160" height="8" rx="3" fill="#2a2a2a"/>
  <rect x="115" y="378" width="120" height="8" rx="3" fill="#2a2a2a"/>

  <rect x="320" y="330" width="200" height="90" rx="6" fill="#1a1a1a" stroke="#2e2e2e" stroke-width="1"/>
  <rect x="335" y="345" width="90" height="10" rx="3" fill="#3b3b3b"/>
  <rect x="335" y="365" width="160" height="8" rx="3" fill="#2a2a2a"/>
  <rect x="335" y="378" width="130" height="8" rx="3" fill="#2a2a2a"/>

  <rect x="540" y="330" width="200" height="90" rx="6" fill="#1a1a1a" stroke="#2e2e2e" stroke-width="1"/>
  <rect x="555" y="345" width="100" height="10" rx="3" fill="#3b3b3b"/>
  <rect x="555" y="365" width="160" height="8" rx="3" fill="#2a2a2a"/>
  <rect x="555" y="378" width="140" height="8" rx="3" fill="#2a2a2a"/>

  <rect x="760" y="330" width="200" height="90" rx="6" fill="#1a1a1a" stroke="#2e2e2e" stroke-width="1"/>
  <rect x="775" y="345" width="70" height="10" rx="3" fill="#3b3b3b"/>
  <rect x="775" y="365" width="160" height="8" rx="3" fill="#2a2a2a"/>
  <rect x="775" y="378" width="120" height="8" rx="3" fill="#2a2a2a"/>

  <rect x="980" y="330" width="120" height="90" rx="6" fill="#1a1a1a" stroke="#2e2e2e" stroke-width="1"/>
  <rect x="995" y="345" width="60" height="10" rx="3" fill="#3b3b3b"/>
  <rect x="995" y="365" width="90" height="8" rx="3" fill="#2a2a2a"/>

  <!-- Footer -->
  <rect x="0" y="580" width="1200" height="50" fill="#1a1a1a"/>
  <rect x="400" y="598" width="400" height="8" rx="3" fill="#2a2a2a"/>
</svg>
